# This file uses centimeters as units for non-parametric coordinates.

mtllib Tongue.mtl
g default
v 0.000000 -0.924068 0.365706
v 0.000000 -0.697533 0.184977
v 0.155717 -0.660272 0.228103
v 0.166642 -0.904899 0.377993
v 0.299930 -0.654054 0.299145
v 0.326530 -0.726732 0.313971
v 0.328248 -0.803932 0.336509
v 0.293971 -0.899371 0.374701
v 0.000000 -0.923198 0.686893
v 0.000000 -0.707290 0.486771
v 0.126335 -0.905540 0.673239
v 0.145305 -0.687615 0.506543
v 0.219677 -0.909747 0.691111
v 0.302066 -0.821988 0.621391
v 0.300462 -0.752374 0.569048
v 0.275950 -0.694525 0.541589
v 0.000000 -0.940818 0.774169
v 0.000000 -0.806874 0.711951
v 0.126335 -0.928785 0.771245
v 0.118053 -0.787282 0.743378
v 0.212359 -0.935335 0.784752
v 0.237518 -0.875930 0.770680
v 0.236215 -0.829222 0.761232
v 0.216877 -0.792919 0.763915
v 0.000000 -0.948461 0.884461
v 0.107472 -0.938373 0.881536
v 0.000000 -0.845479 0.822243
v 0.113425 -0.815593 0.853670
v 0.202376 -0.943864 0.895044
v 0.225489 -0.894061 0.882792
v 0.224381 -0.854904 0.873344
v 0.206219 -0.824468 0.874207
v 0.000000 -0.990710 0.980246
v 0.080084 -0.983009 0.980246
v 0.000000 -0.925725 0.980246
v 0.088236 -0.890378 0.980246
v 0.164796 -0.987201 0.980246
v 0.183121 -0.949183 0.984339
v 0.182296 -0.919290 0.984339
v 0.167660 -0.896057 0.980246
v 0.000000 -1.072308 1.102968
v 0.080084 -1.066580 1.102968
v 0.000000 -1.031561 1.102968
v 0.074834 -1.005203 1.102968
v 0.130004 -1.069698 1.102968
v 0.145589 -1.041421 1.109827
v 0.144763 -1.019188 1.109827
v 0.132868 -1.001908 1.102968
v 0.000000 -1.092081 1.286435
v 0.000000 -1.110911 1.282787
v 0.040985 -1.109962 1.272717
v 0.045911 -1.087125 1.274883
v 0.000000 -1.078269 1.281326
v 0.044421 -1.072231 1.269374
v 0.000000 -1.080374 1.257538
v 0.037112 -1.065706 1.256346
v 0.101065 -1.106030 1.193476
v 0.112968 -1.085009 1.195343
v 0.112359 -1.071491 1.190342
v 0.103177 -1.064811 1.178229
v -0.155717 -0.660272 0.228103
v -0.166642 -0.904899 0.377993
v -0.299930 -0.654054 0.299145
v -0.326530 -0.726732 0.313971
v -0.328248 -0.803932 0.336509
v -0.293971 -0.899371 0.374701
v -0.126335 -0.905540 0.673239
v -0.145305 -0.687615 0.506543
v -0.219677 -0.909747 0.691111
v -0.302066 -0.821988 0.621391
v -0.300462 -0.752374 0.569048
v -0.275950 -0.694525 0.541589
v -0.126335 -0.928785 0.771245
v -0.118053 -0.787282 0.743378
v -0.212359 -0.935335 0.784752
v -0.237518 -0.875930 0.770680
v -0.236215 -0.829222 0.761232
v -0.216877 -0.792919 0.763915
v -0.107472 -0.938373 0.881536
v -0.113425 -0.815593 0.853670
v -0.202376 -0.943864 0.895044
v -0.225489 -0.894061 0.882792
v -0.224381 -0.854904 0.873344
v -0.206219 -0.824468 0.874207
v -0.080084 -0.983009 0.980246
v -0.088236 -0.890378 0.980246
v -0.164796 -0.987201 0.980246
v -0.183121 -0.949183 0.984339
v -0.182296 -0.919290 0.984339
v -0.167660 -0.896057 0.980246
v -0.080084 -1.066580 1.102968
v -0.074834 -1.005203 1.102968
v -0.130004 -1.069698 1.102968
v -0.145589 -1.041421 1.109827
v -0.144763 -1.019188 1.109827
v -0.132868 -1.001908 1.102968
v -0.040985 -1.109962 1.272717
v -0.045911 -1.087125 1.274883
v -0.044421 -1.072231 1.269374
v -0.037112 -1.065706 1.256346
v -0.101065 -1.106030 1.193476
v -0.112968 -1.085009 1.195343
v -0.112359 -1.071491 1.190342
v -0.103177 -1.064811 1.178229
v -0.056804 -1.042872 1.170494
v 0.000000 -1.064691 1.174937
v 0.056804 -1.042872 1.170494
v 0.061396 -1.098509 1.187338
v 0.000000 -1.102181 1.192994
v -0.061396 -1.098509 1.187338
vn 0.248657 -0.162632 0.954841
vn 0.248657 -0.162632 0.954841
vn 0.248657 -0.162632 0.954841
vn 0.248657 -0.162632 0.954841
vn 0.195954 0.349130 0.916357
vn 0.195954 0.349130 0.916357
vn 0.195954 0.349130 0.916357
vn 0.195954 0.349130 0.916357
vn -0.218842 0.962715 0.159020
vn -0.218842 0.962715 0.159020
vn -0.218842 0.962715 0.159020
vn -0.218842 0.962715 0.159020
vn 0.740979 -0.337682 0.580449
vn 0.740979 -0.337682 0.580449
vn 0.740979 -0.337682 0.580449
vn 0.740979 -0.337682 0.580449
vn 0.310577 0.910108 0.274308
vn 0.310577 0.910109 0.274308
vn 0.310577 0.910109 0.274308
vn 0.310577 0.910108 0.274308
vn 0.727399 0.284696 0.624371
vn 0.727398 0.284696 0.624371
vn 0.727398 0.284696 0.624371
vn 0.727398 0.284696 0.624371
vn 0.124750 -0.992152 0.008525
vn 0.124750 -0.992152 0.008525
vn 0.124750 -0.992152 0.008525
vn 0.124750 -0.992152 0.008525
vn -0.197414 0.978542 0.059025
vn -0.197414 0.978542 0.059025
vn -0.197414 0.978542 0.059025
vn -0.197414 0.978542 0.059025
vn 0.007092 -0.999836 -0.016680
vn 0.007092 -0.999836 -0.016680
vn 0.007092 -0.999836 -0.016680
vn 0.007092 -0.999836 -0.016680
vn 0.868228 -0.480845 0.122346
vn 0.868228 -0.480845 0.122346
vn 0.868228 -0.480845 0.122346
vn 0.868228 -0.480845 0.122346
vn 0.904652 0.400980 0.144288
vn 0.904652 0.400980 0.144288
vn 0.904652 0.400980 0.144288
vn 0.904652 0.400980 0.144288
vn -0.046127 0.990961 0.125968
vn -0.046127 0.990961 0.125968
vn -0.046127 0.990961 0.125968
vn -0.046127 0.990961 0.125968
vn 0.991990 0.074480 0.102020
vn 0.991990 0.074480 0.102020
vn 0.991990 0.074480 0.102020
vn 0.991990 0.074480 0.102020
vn 0.100114 -0.971624 -0.214297
vn 0.100114 -0.971624 -0.214297
vn 0.100114 -0.971624 -0.214297
vn 0.100114 -0.971624 -0.214297
vn -0.207867 0.902589 0.376994
vn -0.207867 0.902589 0.376994
vn -0.207867 0.902589 0.376994
vn -0.207867 0.902589 0.376994
vn -0.014810 -0.968795 -0.247420
vn -0.014810 -0.968795 -0.247420
vn -0.014810 -0.968795 -0.247420
vn -0.014810 -0.968795 -0.247420
vn 0.821273 -0.567669 0.057112
vn 0.821273 -0.567669 0.057112
vn 0.821273 -0.567669 0.057112
vn 0.821273 -0.567669 0.057112
vn 0.770570 0.471672 0.428658
vn 0.770570 0.471672 0.428658
vn 0.770570 0.471672 0.428658
vn 0.770570 0.471672 0.428658
vn -0.043842 0.920307 0.388733
vn -0.043842 0.920307 0.388733
vn -0.043842 0.920307 0.388733
vn -0.043842 0.920307 0.388733
vn 0.871785 0.246632 0.423277
vn 0.871785 0.246632 0.423277
vn 0.871785 0.246632 0.423277
vn 0.871785 0.246632 0.423277
vn 0.092239 -0.993294 -0.069701
vn 0.092239 -0.993294 -0.069701
vn 0.092239 -0.993294 -0.069701
vn 0.092239 -0.993294 -0.069701
vn -0.271632 0.922526 0.274158
vn -0.271632 0.922526 0.274158
vn -0.271632 0.922526 0.274158
vn -0.271632 0.922526 0.274158
vn -0.052964 -0.994657 -0.088620
vn -0.052964 -0.994656 -0.088620
vn -0.052964 -0.994657 -0.088620
vn -0.052964 -0.994657 -0.088620
vn 0.917601 -0.395120 0.043453
vn 0.917601 -0.395120 0.043453
vn 0.917601 -0.395120 0.043453
vn 0.917601 -0.395120 0.043453
vn 0.857440 0.470738 0.207850
vn 0.857440 0.470738 0.207850
vn 0.857440 0.470738 0.207850
vn 0.857440 0.470738 0.207850
vn 0.016693 0.964666 0.262945
vn 0.016693 0.964666 0.262945
vn 0.016693 0.964666 0.262945
vn 0.016693 0.964666 0.262945
vn 0.991816 0.053374 0.115984
vn 0.991816 0.053374 0.115984
vn 0.991816 0.053374 0.115984
vn 0.991816 0.053374 0.115984
vn 0.080524 -0.914245 -0.397078
vn 0.080524 -0.914245 -0.397078
vn 0.080524 -0.914245 -0.397078
vn 0.080524 -0.914245 -0.397078
vn -0.337863 0.838750 0.427021
vn -0.337863 0.838750 0.427021
vn -0.337863 0.838750 0.427021
vn -0.337863 0.838750 0.427021
vn -0.015723 -0.899820 -0.435979
vn -0.015723 -0.899820 -0.435979
vn -0.015723 -0.899820 -0.435979
vn -0.015723 -0.899820 -0.435979
vn 0.897313 -0.407674 0.169206
vn 0.897313 -0.407674 0.169206
vn 0.897314 -0.407674 0.169206
vn 0.897314 -0.407674 0.169206
vn 0.698775 0.459987 0.547837
vn 0.698775 0.459987 0.547837
vn 0.698775 0.459987 0.547837
vn 0.698775 0.459987 0.547837
vn 0.007753 0.845393 0.534088
vn 0.007753 0.845393 0.534088
vn 0.007753 0.845393 0.534088
vn 0.007753 0.845393 0.534088
vn 0.909751 0.081191 0.407138
vn 0.909751 0.081191 0.407138
vn 0.909751 0.081191 0.407138
vn 0.909751 0.081191 0.407138
vn 0.069394 -0.827640 -0.556953
vn 0.069394 -0.827640 -0.556953
vn 0.069394 -0.827640 -0.556953
vn 0.069394 -0.827640 -0.556953
vn -0.273463 0.722683 0.634781
vn -0.273463 0.722683 0.634781
vn -0.273463 0.722683 0.634781
vn -0.273463 0.722683 0.634781
vn -0.044760 -0.824446 -0.564168
vn -0.044760 -0.824446 -0.564168
vn -0.044760 -0.824446 -0.564168
vn -0.044760 -0.824446 -0.564168
vn 0.892601 -0.447488 -0.054936
vn 0.892601 -0.447488 -0.054936
vn 0.892601 -0.447488 -0.054936
vn 0.892601 -0.447488 -0.054936
vn 0.572610 0.541400 0.615633
vn 0.572610 0.541400 0.615633
vn 0.572610 0.541400 0.615633
vn 0.572610 0.541400 0.615633
vn 0.012874 0.742311 0.669932
vn 0.012874 0.742311 0.669932
vn 0.012874 0.742311 0.669932
vn 0.012874 0.742311 0.669932
vn 0.951064 0.030134 0.307522
vn 0.951064 0.030134 0.307522
vn 0.951064 0.030134 0.307522
vn 0.951064 0.030134 0.307522
vn 0.049509 -0.943069 -0.328891
vn 0.049509 -0.943069 -0.328891
vn 0.043005 -0.963854 -0.262936
vn 0.040259 -0.971081 -0.235330
vn -0.303090 0.865015 0.399857
vn -0.303090 0.865015 0.399857
vn -0.328125 0.900290 0.286029
vn -0.319635 0.889078 0.327681
vn -0.083136 -0.920448 -0.381922
vn -0.083136 -0.920448 -0.381922
vn -0.099890 -0.936104 -0.337240
vn -0.106369 -0.941580 -0.319550
vn 0.864911 -0.495935 0.077315
vn 0.864911 -0.495935 0.077315
vn 0.864911 -0.495935 0.077315
vn 0.864911 -0.495935 0.077315
vn 0.252128 0.727271 0.638364
vn 0.252128 0.727271 0.638364
vn 0.252128 0.727271 0.638364
vn 0.252128 0.727271 0.638364
vn 0.098400 0.797810 0.594824
vn 0.098400 0.797811 0.594824
vn 0.182040 0.835704 0.518132
vn 0.172028 0.831743 0.527835
vn 0.907473 0.093698 0.409527
vn 0.907473 0.093699 0.409527
vn 0.907473 0.093699 0.409527
vn 0.907473 0.093699 0.409527
vn -0.248657 -0.162632 0.954841
vn -0.248657 -0.162632 0.954841
vn -0.248657 -0.162632 0.954841
vn -0.248657 -0.162632 0.954841
vn -0.195955 0.349130 0.916357
vn -0.195955 0.349130 0.916357
vn -0.195955 0.349130 0.916357
vn -0.195955 0.349130 0.916357
vn 0.218843 0.962715 0.159020
vn 0.218843 0.962715 0.159020
vn 0.218843 0.962715 0.159020
vn 0.218843 0.962715 0.159020
vn -0.740978 -0.337682 0.580450
vn -0.740978 -0.337682 0.580450
vn -0.740978 -0.337682 0.580450
vn -0.740978 -0.337682 0.580450
vn -0.310577 0.910109 0.274306
vn -0.310577 0.910109 0.274306
vn -0.310577 0.910109 0.274306
vn -0.310577 0.910109 0.274306
vn -0.727398 0.284696 0.624372
vn -0.727398 0.284696 0.624372
vn -0.727398 0.284696 0.624372
vn -0.727398 0.284696 0.624372
vn -0.124750 -0.992152 0.008525
vn -0.124750 -0.992152 0.008525
vn -0.124750 -0.992152 0.008525
vn -0.124750 -0.992152 0.008525
vn 0.197414 0.978542 0.059025
vn 0.197414 0.978542 0.059025
vn 0.197414 0.978542 0.059025
vn 0.197414 0.978542 0.059025
vn -0.007092 -0.999836 -0.016680
vn -0.007092 -0.999836 -0.016680
vn -0.007092 -0.999836 -0.016680
vn -0.007092 -0.999836 -0.016680
vn -0.868228 -0.480845 0.122346
vn -0.868228 -0.480845 0.122346
vn -0.868228 -0.480845 0.122346
vn -0.868228 -0.480845 0.122346
vn -0.904652 0.400980 0.144288
vn -0.904652 0.400980 0.144288
vn -0.904652 0.400980 0.144288
vn -0.904652 0.400980 0.144288
vn 0.046127 0.990961 0.125968
vn 0.046127 0.990961 0.125968
vn 0.046127 0.990961 0.125968
vn 0.046127 0.990961 0.125968
vn -0.991990 0.074480 0.102020
vn -0.991990 0.074480 0.102020
vn -0.991990 0.074480 0.102020
vn -0.991990 0.074480 0.102020
vn -0.100114 -0.971624 -0.214297
vn -0.100114 -0.971624 -0.214297
vn -0.100114 -0.971624 -0.214297
vn -0.100114 -0.971624 -0.214297
vn 0.207867 0.902589 0.376994
vn 0.207867 0.902589 0.376994
vn 0.207867 0.902589 0.376994
vn 0.207867 0.902589 0.376994
vn 0.014810 -0.968795 -0.247420
vn 0.014810 -0.968795 -0.247420
vn 0.014810 -0.968795 -0.247420
vn 0.014810 -0.968795 -0.247420
vn -0.821273 -0.567669 0.057112
vn -0.821273 -0.567669 0.057112
vn -0.821273 -0.567669 0.057112
vn -0.821273 -0.567669 0.057112
vn -0.770570 0.471672 0.428658
vn -0.770570 0.471672 0.428658
vn -0.770570 0.471672 0.428658
vn -0.770570 0.471672 0.428658
vn 0.043842 0.920307 0.388733
vn 0.043842 0.920307 0.388733
vn 0.043842 0.920307 0.388733
vn 0.043842 0.920307 0.388733
vn -0.871785 0.246632 0.423277
vn -0.871785 0.246632 0.423277
vn -0.871785 0.246632 0.423277
vn -0.871785 0.246632 0.423277
vn -0.092239 -0.993294 -0.069701
vn -0.092239 -0.993294 -0.069701
vn -0.092239 -0.993294 -0.069701
vn -0.092239 -0.993294 -0.069701
vn 0.271632 0.922526 0.274158
vn 0.271632 0.922526 0.274158
vn 0.271632 0.922526 0.274158
vn 0.271632 0.922526 0.274158
vn 0.052964 -0.994656 -0.088620
vn 0.052964 -0.994656 -0.088620
vn 0.052964 -0.994656 -0.088620
vn 0.052964 -0.994656 -0.088620
vn -0.917602 -0.395120 0.043453
vn -0.917601 -0.395120 0.043453
vn -0.917602 -0.395120 0.043453
vn -0.917602 -0.395120 0.043453
vn -0.857440 0.470738 0.207850
vn -0.857440 0.470738 0.207850
vn -0.857440 0.470738 0.207850
vn -0.857440 0.470738 0.207850
vn -0.016693 0.964666 0.262945
vn -0.016693 0.964666 0.262945
vn -0.016693 0.964666 0.262945
vn -0.016693 0.964666 0.262945
vn -0.991816 0.053374 0.115984
vn -0.991816 0.053374 0.115984
vn -0.991816 0.053374 0.115984
vn -0.991816 0.053374 0.115984
vn -0.080525 -0.914245 -0.397078
vn -0.080525 -0.914245 -0.397078
vn -0.080525 -0.914245 -0.397078
vn -0.080525 -0.914245 -0.397078
vn 0.337863 0.838750 0.427021
vn 0.337863 0.838750 0.427021
vn 0.337863 0.838750 0.427021
vn 0.337863 0.838750 0.427021
vn 0.015723 -0.899820 -0.435978
vn 0.015723 -0.899820 -0.435978
vn 0.015723 -0.899820 -0.435978
vn 0.015723 -0.899820 -0.435978
vn -0.897314 -0.407674 0.169206
vn -0.897313 -0.407674 0.169206
vn -0.897314 -0.407674 0.169206
vn -0.897314 -0.407674 0.169206
vn -0.698775 0.459987 0.547837
vn -0.698775 0.459987 0.547837
vn -0.698775 0.459987 0.547837
vn -0.698775 0.459987 0.547837
vn -0.007753 0.845393 0.534088
vn -0.007753 0.845393 0.534088
vn -0.007753 0.845393 0.534088
vn -0.007753 0.845393 0.534088
vn -0.909751 0.081191 0.407138
vn -0.909751 0.081191 0.407138
vn -0.909751 0.081191 0.407138
vn -0.909751 0.081191 0.407138
vn -0.069394 -0.827640 -0.556953
vn -0.069394 -0.827640 -0.556953
vn -0.069394 -0.827640 -0.556953
vn -0.069394 -0.827640 -0.556953
vn 0.273464 0.722683 0.634781
vn 0.273464 0.722683 0.634781
vn 0.273464 0.722683 0.634781
vn 0.273464 0.722683 0.634781
vn 0.044760 -0.824446 -0.564167
vn 0.044760 -0.824446 -0.564167
vn 0.044760 -0.824446 -0.564167
vn 0.044760 -0.824446 -0.564167
vn -0.892601 -0.447488 -0.054936
vn -0.892601 -0.447488 -0.054936
vn -0.892601 -0.447488 -0.054936
vn -0.892601 -0.447488 -0.054936
vn -0.572610 0.541399 0.615634
vn -0.572610 0.541399 0.615634
vn -0.572610 0.541399 0.615634
vn -0.572610 0.541399 0.615634
vn -0.012874 0.742311 0.669931
vn -0.012874 0.742311 0.669931
vn -0.012874 0.742311 0.669931
vn -0.012874 0.742311 0.669931
vn -0.951064 0.030135 0.307523
vn -0.951064 0.030135 0.307523
vn -0.951064 0.030135 0.307523
vn -0.951064 0.030135 0.307523
vn -0.049509 -0.943069 -0.328891
vn -0.040259 -0.971081 -0.235330
vn -0.043006 -0.963854 -0.262936
vn -0.049509 -0.943069 -0.328891
vn 0.303090 0.865015 0.399857
vn 0.319635 0.889078 0.327681
vn 0.328125 0.900289 0.286030
vn 0.303090 0.865015 0.399857
vn 0.083136 -0.920447 -0.381923
vn 0.106369 -0.941580 -0.319551
vn 0.099891 -0.936104 -0.337242
vn 0.083136 -0.920447 -0.381923
vn -0.864911 -0.495935 0.077315
vn -0.864911 -0.495935 0.077315
vn -0.864911 -0.495935 0.077315
vn -0.864911 -0.495935 0.077315
vn -0.252130 0.727271 0.638363
vn -0.252130 0.727271 0.638363
vn -0.252130 0.727271 0.638363
vn -0.252130 0.727271 0.638363
vn -0.098401 0.797810 0.594824
vn -0.172029 0.831743 0.527835
vn -0.182040 0.835704 0.518132
vn -0.098401 0.797810 0.594824
vn -0.907473 0.093699 0.409528
vn -0.907473 0.093699 0.409528
vn -0.907473 0.093699 0.409528
vn -0.907473 0.093699 0.409528
vn 0.347975 0.921939 0.170124
vn 0.347975 0.921939 0.170124
vn -0.347975 0.921939 0.170123
vn -0.347975 0.921939 0.170123
vn 0.362091 0.876849 0.316267
vn -0.158406 -0.972910 -0.168386
vn 0.027749 -0.993407 -0.111229
vn 0.027749 -0.993407 -0.111229
vn -0.027749 -0.993407 -0.111229
vn -0.027749 -0.993407 -0.111229
vn 0.158406 -0.972910 -0.168388
vn -0.362091 0.876849 0.316268
s off
g Tongue
usemtl initialShadingGroup
f 49//1 50//2 51//3 52//4
f 53//5 49//6 52//7 54//8
f 55//9 53//10 54//11 56//12
f 52//13 51//14 57//15 58//16
f 59//17 60//18 56//19 54//20
f 58//21 59//22 54//23 52//24
f 1//25 4//26 11//27 9//28
f 3//29 2//30 10//31 12//32
f 4//33 8//34 13//35 11//36
f 8//37 7//38 14//39 13//40
f 6//41 5//42 16//43 15//44
f 5//45 3//46 12//47 16//48
f 7//49 6//50 15//51 14//52
f 9//53 11//54 19//55 17//56
f 12//57 10//58 18//59 20//60
f 11//61 13//62 21//63 19//64
f 13//65 14//66 22//67 21//68
f 15//69 16//70 24//71 23//72
f 16//73 12//74 20//75 24//76
f 14//77 15//78 23//79 22//80
f 17//81 19//82 26//83 25//84
f 20//85 18//86 27//87 28//88
f 19//89 21//90 29//91 26//92
f 21//93 22//94 30//95 29//96
f 23//97 24//98 32//99 31//100
f 24//101 20//102 28//103 32//104
f 22//105 23//106 31//107 30//108
f 25//109 26//110 34//111 33//112
f 28//113 27//114 35//115 36//116
f 26//117 29//118 37//119 34//120
f 29//121 30//122 38//123 37//124
f 31//125 32//126 40//127 39//128
f 32//129 28//130 36//131 40//132
f 30//133 31//134 39//135 38//136
f 33//137 34//138 42//139 41//140
f 36//141 35//142 43//143 44//144
f 34//145 37//146 45//147 42//148
f 37//149 38//150 46//151 45//152
f 39//153 40//154 48//155 47//156
f 40//157 36//158 44//159 48//160
f 38//161 39//162 47//163 46//164
s 1
f 41//165 42//166 108//167 109//168
s 2
f 44//169 43//170 106//171 107//172
s 3
f 42//173 45//174 57//175 108//176
s off
f 45//177 46//178 58//179 57//180
f 47//181 48//182 60//183 59//184
s 4
f 48//185 44//186 107//187 60//188
s off
f 46//189 47//190 59//191 58//192
f 49//193 98//194 97//195 50//196
f 53//197 99//198 98//199 49//200
f 55//201 100//202 99//203 53//204
f 98//205 102//206 101//207 97//208
f 103//209 99//210 100//211 104//212
f 102//213 98//214 99//215 103//216
f 1//217 9//218 67//219 62//220
f 61//221 68//222 10//223 2//224
f 62//225 67//226 69//227 66//228
f 66//229 69//230 70//231 65//232
f 64//233 71//234 72//235 63//236
f 63//237 72//238 68//239 61//240
f 65//241 70//242 71//243 64//244
f 9//245 17//246 73//247 67//248
f 68//249 74//250 18//251 10//252
f 67//253 73//254 75//255 69//256
f 69//257 75//258 76//259 70//260
f 71//261 77//262 78//263 72//264
f 72//265 78//266 74//267 68//268
f 70//269 76//270 77//271 71//272
f 17//273 25//274 79//275 73//276
f 74//277 80//278 27//279 18//280
f 73//281 79//282 81//283 75//284
f 75//285 81//286 82//287 76//288
f 77//289 83//290 84//291 78//292
f 78//293 84//294 80//295 74//296
f 76//297 82//298 83//299 77//300
f 25//301 33//302 85//303 79//304
f 80//305 86//306 35//307 27//308
f 79//309 85//310 87//311 81//312
f 81//313 87//314 88//315 82//316
f 83//317 89//318 90//319 84//320
f 84//321 90//322 86//323 80//324
f 82//325 88//326 89//327 83//328
f 33//329 41//330 91//331 85//332
f 86//333 92//334 43//335 35//336
f 85//337 91//338 93//339 87//340
f 87//341 93//342 94//343 88//344
f 89//345 95//346 96//347 90//348
f 90//349 96//350 92//351 86//352
f 88//353 94//354 95//355 89//356
s 5
f 41//357 109//358 110//359 91//360
s 6
f 92//361 105//362 106//363 43//364
s 7
f 91//365 110//366 101//367 93//368
s off
f 93//369 101//370 102//371 94//372
f 95//373 103//374 104//375 96//376
s 8
f 96//377 104//378 105//379 92//380
s off
f 94//381 102//382 103//383 95//384
s 6
f 105//362 100//385 55//386 106//363
s 2
f 107//172 106//171 55//387 56//388
s 4
f 60//188 107//187 56//389
s 3
f 108//176 57//175 51//390
s 1
f 109//168 108//167 51//391 50//392
s 5
f 110//359 109//358 50//393 97//394
s 7
f 101//367 110//366 97//395
s 8
f 105//379 104//378 100//396
